<?xml version="1.0" encoding="UTF-8"?>
<svg version="1.1" viewBox="0 0 998.61 998.61" xmlns="http://www.w3.org/2000/svg">
 <g data-name="Layer 2">
  <rect width="998.61" height="998.61" display="none"/>
 </g>
 <g data-name="Layer 1">
  <g fill="#fff">
   <path d="M216.49,756.05h15.92c.21,1.43.33,2.82.62,4.17,1.89,8.71,10.51,14.86,19.36,13.82,9.58-1.12,16.2-8.57,16.2-18.24,0-6.2,0-12.4,0-18.75-.4.2-.71.33-1,.49-21.61,12.13-46.18-1.18-50.46-22.61-4.45-22.27,11.75-37.68,26.44-40.5,22.36-4.28,37.84,11.9,40.47,26.49.41,2.27.64,4.6.65,6.91.05,16.12-.1,32.24.06,48.36.18,17.83-14.27,31.89-29.32,33.8-20.87,2.66-34.55-12.05-37.81-24.7-.77-2.99-1.23-6.02-1.12-9.25ZM250.58,689.91c-10.05.03-18.01,8-18.03,18.05-.01,10.1,8.04,17.97,18.32,17.99,9.64.02,17.96-8.37,17.75-18.35-.2-9.72-8.2-17.73-18.04-17.7Z"/>
   <path d="M503.26,673.86h16.08v1.3c0,27.32.05,54.64-.03,81.95-.03,8.55-3.22,15.96-9.1,22.2-5.05,5.36-11.06,9.01-18.37,10.35-21.59,3.95-36.47-11.18-39.71-24.93-.66-2.78-.89-5.66-1.34-8.64h16.27c.15,1.15.25,2.37.46,3.57,1.5,8.5,9.63,14.87,18.44,14.47,8.9-.41,16.48-7.32,17.07-15.99.37-5.42.17-10.87.22-16.31.01-1.55,0-3.1,0-4.81-.44.22-.76.35-1.05.52-21.34,11.95-45.58-.86-50.33-22.03-.55-2.44-.8-4.99-.82-7.49-.09-11.08-.04-22.16-.04-33.24,0-.27.03-.54.05-.89h16.11c0,.54,0,1.05,0,1.56,0,10.84-.02,21.68,0,32.52.02,8.39,5.77,15.64,13.84,17.51,11.45,2.65,22.19-5.82,22.23-17.58.04-10.84,0-21.68,0-32.52,0-.47,0-.94,0-1.52Z"/>
   <path d="m716.87 756.05h15.85c0.31 1.76 0.46 3.48 0.92 5.11 2.46 8.7 10.73 13.93 20.07 12.78 8.23-1.02 15.04-8.62 15.21-17.2 0.13-6.36 0.05-12.72 0.06-19.08 0-0.18-0.03-0.37-0.03-0.43-2.48 1.07-4.87 2.29-7.38 3.13-19.72 6.6-40.91-6.15-44.33-26.64-0.29-1.77-0.43-3.58-0.43-5.37-0.04-11.08-0.02-22.16-0.02-33.24v-1.22h16.16v1.48 32.64c0 9.43 7.38 17.36 16.68 17.92 9.72 0.58 18-6.18 19.17-15.66 0.13-1.07 0.18-2.15 0.18-3.23 0.01-10.56 0-21.12 0-31.68v-1.47h16.08v1.27 81.71c0 16.05-12.66 30.57-28.54 32.97-19.66 2.97-32.95-9.54-37.59-21.53-1.43-3.69-2.04-7.54-2.15-11.49 0-0.23 0.05-0.46 0.08-0.76z"/>
   <path d="M317.74,707.91c-.65-18.03,15.53-34.5,34.69-34.2,17.49.27,33.63,15.38,33.63,34.18,0,18.77-16,34.31-34.27,34.27-18.76-.04-34.66-16.22-34.04-34.25ZM333.82,707.89c.01,10.14,7.96,18.05,18.13,18.05,9.93,0,17.91-8.04,17.91-18.04,0-9.97-7.96-17.96-17.96-18-10.03-.05-18.1,7.97-18.08,17.99Z"/>
   <path d="m674.27 689.91h-18.03v-16.08h17.95v-24.06h16.08v24h18.01v16.14h-17.97v52.09h-16.04v-52.09z"/>
   <path d="M623.12,725.94v15.98c-.14.06-.22.12-.29.12-7.35-.07-14.74.28-22.05-.32-13.9-1.15-26.41-12.76-29.05-26.41-2.25-11.66.31-22.07,8.56-30.81,6.35-6.72,14.16-10.45,23.46-10.65,6.19-.13,12.4-.03,18.59-.02.23,0,.47.04.77.08v16c-.49,0-.95,0-1.41,0-5.76.01-11.52-.08-17.27.06-7.93.19-14.72,5.61-16.78,13.19-2.09,7.68,1.13,15.88,7.89,20.11,2.89,1.8,6.03,2.68,9.43,2.68,5.6,0,11.2,0,16.79,0h1.36Z"/>
   <path d="m293.17 741.99v-92.24h16.02v92.24h-16.02z"/>
   <path d="M410.55,742.02h-16.16v-1.3c0-11.12-.02-22.23,0-33.35.04-16.74,13.11-31.54,29.78-33.22,6.02-.61,12.14-.22,18.21-.28.03,0,.06.04.17.11v15.92c-.42,0-.84,0-1.26,0-4.56.01-9.12-.06-13.67.06-9.27.24-17.04,8.23-17.06,17.51-.03,10.96,0,21.91,0,32.87v1.68Z"/>
   <path d="m647.66 742.02h-15.99v-68.11h15.99v68.11z"/>
   <path d="m647.68 649.71v15.96h-16.01v-15.96h16.01z"/>
   <path d="M416.81,857.51h-1.77v-7.45c-.58,1.17-.97,2.07-1.45,2.91-4.05,7.03-12.72,7.39-17.35.73-2.13-3.07-3.12-6.55-3.44-10.21-.48-5.43.08-10.71,2.95-15.51,2.76-4.61,7.18-6.48,11.89-5.09,2.78.82,4.62,2.75,5.97,5.21.45.83.83,1.7,1.37,2.81v-7.55h1.84v34.15ZM394.48,840.65c.03.6.03,1.44.12,2.27.33,3.33,1.09,6.54,2.93,9.39,1.64,2.54,3.83,4.3,7.01,4.37,3.44.08,5.82-1.72,7.51-4.53,2.71-4.5,3.27-9.45,2.81-14.56-.31-3.42-1.23-6.68-3.24-9.53-2.06-2.92-4.81-4.41-8.44-3.72-2.75.53-4.57,2.35-5.92,4.67-2.05,3.51-2.7,7.38-2.77,11.62Z"/>
   <path d="M476.41,809.71h1.67v19.77c1.03-1.37,1.93-2.89,3.14-4.09,4.24-4.19,12.26-3.89,15.84.5,1.65,2.02,2.27,4.45,2.3,6.93.1,8.19.04,16.38.04,24.67h-1.74v-1.42c0-6.64.04-13.27-.03-19.91-.02-1.94-.15-3.93-.58-5.82-1.04-4.57-3.91-6.31-8.41-6.14-5.43.21-9.15,3.94-10.03,9.79-.28,1.89-.43,3.81-.45,5.73-.06,5.48-.02,10.96-.02,16.43,0,.43,0,.86,0,1.36h-1.74v-47.8Z"/>
   <path d="M653.99,840.65h-23.29c.16,5.2.84,10.12,4.91,13.73,5.33,4.73,13.46,2.22,15.84-4.79q.48-1.42,2-1.16c-.83,5.17-4.58,9.03-9.59,9.88-5.11.87-9.88-1.52-12.39-6.26-2.3-4.34-2.87-9.01-2.53-13.84.27-3.84,1.17-7.5,3.41-10.71,3.25-4.65,8.88-6.33,13.86-4.14,2.91,1.28,4.75,3.57,5.98,6.42,1.47,3.41,1.78,7.01,1.8,10.86ZM652.03,838.89c.26-3.45-1-8.11-2.84-10.71-2.76-3.91-8.01-5.27-11.97-2.8-1.53.96-2.86,2.44-3.88,3.96-1.9,2.83-2.55,6.1-2.61,9.55h21.29Z"/>
   <path d="M351.51,857.51h-1.79v-34.17h1.72v6.18c1.07-1.34,2.06-3.02,3.46-4.25,3.25-2.86,7.13-3.47,11.23-2.28,3.4.98,5.27,3.51,6.09,6.81.37,1.5.6,3.07.62,4.62.06,7.44.03,14.88.03,22.32,0,.23-.04.46-.06.77h-1.78v-1.35c0-7.04.05-14.08-.03-21.12-.02-1.78-.26-3.6-.74-5.32-1.07-3.82-4.23-5.86-8.2-5.53-5.75.47-9.25,3.97-10.17,10.26-.24,1.61-.35,3.26-.37,4.89-.04,5.6-.02,11.2-.02,16.8,0,.43,0,.86,0,1.36Z"/>
   <path d="M437.23,848.11h1.59c.31,1.41.47,2.81.93,4.1,1.12,3.16,4.14,4.83,7.78,4.47,3.43-.34,5.85-2.62,6.37-5.99.73-4.78-1.05-7.99-5.49-9.83-1.58-.66-3.25-1.13-4.8-1.86-5.64-2.66-7.1-10-2.82-14.19,2.62-2.56,5.8-2.92,9.13-1.84,3.18,1.03,4.59,3.52,4.96,6.7.06.51.11,1.02.17,1.64h-1.71c-.08-.66-.13-1.36-.26-2.05-.64-3.39-3.25-5.34-6.76-5.1-3.53.24-5.97,2.77-6.09,6.34-.1,3.09,1.18,5.45,3.98,6.8,1.54.74,3.18,1.26,4.79,1.86,6.14,2.27,7.81,7.42,6.46,12.81-1.08,4.29-4.71,6.65-9.57,6.45-4.37-.18-7.54-2.97-8.33-7.37-.17-.93-.22-1.88-.34-2.93Z"/>
   <path d="M528.4,855.84c2.01-6.56,3.93-12.85,5.86-19.15,1.24-4.05,2.51-8.08,3.68-12.15.34-1.19.9-1.57,2.13-1.13-.09.36-.16.74-.27,1.11-3.29,10.6-6.58,21.19-9.88,31.78-.38,1.22-1.09,1.65-2.29,1.22-.33-.12-.6-.67-.73-1.08-2.12-6.74-4.21-13.49-6.3-20.24-1.2-3.85-2.4-7.7-3.59-11.55-.13-.41-.21-.82-.32-1.24,1.77-.35,1.79-.33,2.23,1.13,3.05,10.13,6.1,20.25,9.15,30.38.07.23.17.44.35.91Z"/>
   <path d="m582.32 809.72h1.69v47.76h-1.69v-47.76z"/>
   <path d="m608.46 857.51h-1.7v-47.75h1.7v47.75z"/>
   <path d="m559.6 857.51h-1.75v-34.15h1.75v34.15z"/>
   <path d="m559.58 815.45h-1.7v-5.72h1.7v5.72z"/>
  </g>
 </g>
 <g data-name="Layer 3">
  <g fill="#fff">
   <path d="m558.36 260.59c4.32 9.89 7.72 20.26 10.1 31.01 13.54-27.05 41.5-45.63 73.81-45.63 22.94 0 43.68 9.37 58.64 24.48l17.99-17.98c-19.58-19.73-46.7-31.98-76.62-31.98-33.85 0-64.09 15.66-83.91 40.11z"/>
   <path d="m484.21 462.94v14.91c-4.61 41.2-39.55 73.23-81.98 73.23-14.53 0-28.18-3.77-40.04-10.37l-15.49 20.52c16.6 9.99 35.65 15.33 55.53 15.33 55.05 0 101.18-41.22 107.31-95.88v-45.69c-4.08-5.07-7.88-10.38-11.36-15.91-4.34 4.6-9.01 8.89-13.96 12.83-22.54 17.9-51.03 28.61-81.98 28.61-72.81 0-132.04-59.23-132.04-132.04s59.23-132.04 132.04-132.04 132.04 59.23 132.04 132.04c0 59.55 48.45 108 108 108 29.62 0 56.49-11.99 76.02-31.37l-17.99-17.99c-14.91 14.75-35.4 23.87-58.04 23.87-45.57 0-82.51-36.94-82.51-82.51 0-86.86-70.66-157.52-157.52-157.52s-157.52 70.66-157.52 157.52 70.66 157.52 157.52 157.52c30.01 0 58.08-8.44 81.98-23.06z"/>
   <path d="m534.27 468.57c0 72.81-59.23 132.04-132.04 132.04-25.15 0-49.24-7.03-70.05-20.14l-15.39 20.38c24.63 15.96 53.97 25.25 85.44 25.25 83.95 0 152.77-66.01 157.28-148.86-8.94-4.99-17.39-10.76-25.24-17.22v8.55z"/>
   <path d="m642.27 196.44c36.56 0 69.69 14.94 93.62 39.02l18.01-18.01c-28.55-28.7-68.05-46.5-111.63-46.5s-82.8 17.66-111.32 46.18c5.64 6.51 10.78 13.45 15.39 20.76 24.09-25.5 58.17-41.45 95.93-41.45z"/>
   <path d="m642.27 460.52c-72.81 0-132.04-59.23-132.04-132.04 0-59.55-48.45-108-108-108s-108 48.45-108 108 48.45 108 108 108c33.85 0 64.09-15.66 83.91-40.11-4.32-9.89-7.72-20.26-10.1-31.01-13.54 27.05-41.5 45.63-73.81 45.63-45.57 0-82.51-36.94-82.51-82.51s36.94-82.51 82.51-82.51 82.51 36.94 82.51 82.51c0 86.86 70.66 157.52 157.52 157.52 43.28 0 82.53-17.54 111.03-45.89l-18.01-18.01c-23.88 23.73-56.77 38.42-93.02 38.42z"/>
  </g>
 </g>
</svg>
